<svg width="20" height="20" viewBox="0 0 20 20">
  <path d="M18.0427971,0c-0.2238293,0-0.4527359,0.0429688-0.6792965,0.1375L1.1224841,7.6332035 c-1.8738282,0.874609-1.2492188,3.6230469,0.7496094,3.6230469H8.743578v6.8714848C8.743578,19.3000011,9.6892805,20,10.6474838,20 c0.6757803,0,1.3574219-0.3476562,1.719141-1.1226559l7.4960938-16.2414055C20.3927956,1.3628906,19.3021717,0,18.0427971,0z M10.6174059,18.1277351V9.3824215H8.743578L1.8888903,9.4101562C1.8783435,9.3957033,1.8705308,9.3574219,1.9076403,9.3347664 l16.1410141-7.4496102c0.0238285,0.0160156,0.0500011,0.0417969,0.0660172,0.0656251L10.6174059,18.1277351z" />
</svg>