<svg width="20" height="20" viewBox="0 0 20 20">
  <path d="M16.0159054,8.0000324c-0.5116568-0.0019999-1.0009375,0.0923443-1.4511251,0.2654686l-2.4274988-3.9110293 c-0.1368151-0.2204165-0.3778229-0.3544772-0.637248-0.3544688h-1.999999c-0.2761564,0-0.5,0.2238441-0.5,0.5v0.4999995 c0,0.2761564,0.2238436,0.5,0.5,0.5h1.5827799l0.4654999,0.7499995H8.0000658V5.7500024c0-0.2761564-0.2238431-0.5-0.4999995-0.5 H4.766974c-0.4200306,0-0.7742808,0.3437185-0.7667494,0.7636557c0.0072498,0.4076252,0.3398752,0.7363434,0.7498431,0.7363434 h1.522687l-0.919281,1.4849992C4.9336925,8.0840635,4.4814744,8.0011578,4.009974,8.000001 c-2.19453-0.0053124-3.9970918,1.7816238-4.0099044,3.9761229c-0.0129687,2.2200928,1.7829053,4.0238733,3.9999979,4.0238733 c1.8638115,0,3.4299359-1.2747812,3.8739667-2.999999h1.6260304c0.2597294-0.000001,0.5009708-0.1343822,0.6376867-0.3552179 l2.6863117-4.339467l0.4668121,0.7520943c-0.7954683,0.732749-1.2932816,1.7837801-1.290844,2.9511538 c0.0045309,2.1510305,1.8093424,3.9703417,3.9602795,3.9912167c2.2064371,0.0214052,4.0056562-1.7438431,4.0392179-3.9373732 c0.0339375-2.2169056-1.7664375-4.0537481-3.9836235-4.0623732V8.0000324z M5.8359418,10.3053751 c0.3039689,0.329031,0.5210314,0.7394056,0.613812,1.1946239H5.0964422L5.8359418,10.3053751z M4.0000677,14.4999981 c-1.3784993,0-2.4999986-1.1215-2.4999986-2.499999S2.6215684,9.5,4.0000677,9.5 c0.1834064,0,0.3620625,0.0204067,0.5343432,0.058094l-1.4220304,2.2971544 c-0.3087809,0.4987192,0.0505314,1.1447496,0.6376874,1.1447496h2.5406239 C5.9041295,13.8820295,5.0231299,14.4999981,4.0000677,14.4999981z M9.0822535,11.499999H7.9690042 c-0.1237502-0.9923744-0.611125-1.871686-1.3244681-2.5008106L7.4178472,7.750001h3.9858422L9.0822525,11.499999H9.0822535z  M15.8652811,14.4964352c-1.2823744-0.0676565-2.3140306-1.1153755-2.3633432-2.3985929 c-0.0253754-0.6600313,0.2072811-1.2661867,0.6042185-1.7269678l1.3885307,2.2370615 c0.1456251,0.2346239,0.4538746,0.3067493,0.6885004,0.1611252l0.4248104-0.2636566 c0.2346249-0.1456251,0.3067818-0.4538746,0.1611252-0.6885004l-1.3896236-2.238843 c0.2027664-0.0519171,0.4112558-0.0781336,0.6205635-0.0780306c1.3784981,0,2.4999981,1.1215,2.4999981,2.499999 C18.5000305,13.4231539,17.3046856,14.5724039,15.8652811,14.4964352z" />
</svg>