<svg width="20" height="20" viewBox="0 0 20 20" xmlns="http://www.w3.org/2000/svg">
  <path d="M17,8h-0.5l-3.3996878-4.2493749C12.7208385,3.2762003,12.1462688,3.0000112,11.5387497,3H4.8540626 C4.0362501,3,3.3009377,3.4978125,2.9971876,4.2571874L1.5,8v0.0706253C0.63875,8.2937498,0,9.0690632,0,10v3.5 C0,13.7762499,0.22375,14,0.5,14H2c0,1.6568747,1.3431249,3,3,3s3-1.3431253,3-3h4c0,1.6568747,1.3431253,3,3,3s3-1.3431253,3-3h1.5 c0.2762508,0,0.5-0.2237501,0.5-0.5V11C20,9.3431244,18.6568756,8,17,8z M8.75,4.5h2.7887497 c0.152813,0,0.2950001,0.0684376,0.3903122,0.1875L14.5790615,8H8.75V4.5z M4.3896875,4.8143749 C4.4662499,4.6234374,4.6484375,4.5,4.8540626,4.5H7.25V8H3.1156249L4.3896875,4.8143749z M5,15.5 c-0.8284373,0-1.5-0.6715622-1.5-1.5s0.6715627-1.5,1.5-1.5s1.5,0.6715622,1.5,1.5S5.8284373,15.5,5,15.5z M15,15.5 c-0.8284378,0-1.5-0.6715622-1.5-1.5s0.6715622-1.5,1.5-1.5s1.5,0.6715622,1.5,1.5S15.8284378,15.5,15,15.5z M18.5,12.5h-0.9159374 C17.0643749,11.6071873,16.1078129,11,15,11s-2.0640621,0.6071873-2.5840626,1.5H7.5840626C7.0643749,11.6071873,6.1078124,11,5,11 s-2.0640626,0.6071873-2.5840626,1.5H1.5V10c0-0.2756252,0.224375-0.5,0.5-0.5h15c0.8271866,0,1.5,0.6728125,1.5,1.5V12.5z" />
</svg>