<svg width="20" height="20" viewBox="0 0 20 20">
  <path d="M19.5307426,7.5003872h-2.0394554l-1.2250023-3.0421915 C15.7905035,3.274991,14.6428452,2.49999,13.3678446,2.49999H6.6318979c-1.2750015,0-2.4226594,0.775001-2.8988318,1.9578152 L2.5080643,7.4999967H0.4689991c-0.3050785,0-0.5289069,0.2867188-0.454688,0.5824227l0.2343753,0.937501 c0.0522795,0.2085743,0.2396618,0.354907,0.4546881,0.3550787H1.145172 c-0.3234379,0.5531263-0.5203132,1.1878929-0.5203132,1.8746119v5.3128986c0,0.5175781,0.4199224,0.9375,0.9375013,0.9375h0.6250007 c0.5175788,0,0.9375014-0.4199219,0.9375014-0.9375v-0.9375019h13.7500172v0.9375019c0,0.5175781,0.4199238,0.9375,0.9375019,0.9375 h0.625c0.51758,0,0.9375019-0.4199219,0.9375019-0.9375v-5.3125076c0-0.6871099-0.1968765-1.3218765-0.5199223-1.8746119h0.4417973 c0.2152348,0,0.4027348-0.1464853,0.454689-0.3550787l0.234375-0.9375019 c0.0738277-0.2960939-0.1499996-0.5824223-0.4550781-0.5824223H19.5307426z M5.4725218,5.1581969 C5.663928,4.682415,6.1190066,4.3749924,6.6318979,4.3749924h6.7359467c0.5128918,0,0.9679699,0.3074226,1.1593761,0.7832046 L15.4698,7.4996061H4.529942L5.4725218,5.1581969z M17.4998817,13.1250038c0,0.344532-0.2804699,0.625001-0.6250019,0.625001 H3.1248622c-0.3445318,0-0.625001-0.2804689-0.625001-0.625001v-1.8750019c0-1.0339861,0.8410168-1.8750029,1.8750024-1.8750029 h11.2500153c1.0339861,0,1.8750029,0.8410168,1.8750029,1.8750029V13.1250038z M4.9998646,10.312109 c-0.750001,0-1.2500017,0.4984388-1.2500017,1.2464867s0.5000007,1.2464857,1.2500017,1.2464857 s1.8750024,0.1246099,1.8750024-0.6234379C6.874867,11.4339867,5.7498655,10.312109,4.9998646,10.312109z M14.9998779,10.312109 c-0.7500019,0-1.8750029,1.1218767-1.8750029,1.8695335c0,0.7480478,1.125001,0.6234379,1.8750029,0.6234379 c0.750001,0,1.2500019-0.4984388,1.2500019-1.2464857c0-0.7476578-0.500001-1.2464867-1.2500019-1.2464867V10.312109z" />
</svg>