<svg width="20" height="20" viewBox="0 0 20 20">
  <path d="M10,0C4.4758062,0,0,4.4758062,0,10s4.4758062,10,10,10s10-4.4758062,10-10S15.5241938,0,10,0z M10,18.0645161c-4.4556451,0-8.0645161-3.6088705-8.0645161-8.0645161S5.5443549,1.9354838,10,1.9354838 S18.0645161,5.5443549,18.0645161,10S14.4556456,18.0645161,10,18.0645161z M12.4919348,13.8548393l-3.4233866-2.4879045 c-0.125-0.092741-0.1975803-0.2379026-0.1975803-0.3911295V4.3548388c0-0.266129,0.217742-0.4838712,0.4838705-0.4838712h1.2903233 c0.2661285,0,0.4838705,0.2177422,0.4838705,0.4838712v5.7137103l2.6935482,1.9596777 c0.217742,0.1572571,0.2620964,0.4596767,0.1048384,0.6774187L13.1693554,13.75 c-0.157258,0.2137089-0.4596777,0.2620964-0.6774187,0.1048393H12.4919348z" />
</svg>