<svg width="20" height="20" viewBox="0 0 20 20" xmlns="http://www.w3.org/2000/svg">
  <path d="M6.9583149,9.8466825l1.1230249-4.3389778C8.299695,4.6752992,7.7165036,3.9964061,7.0680785,3.8401592 C5.3946738,3.4397764,3.661114,4.4370227,3.2326066,6.0776153L2.5443387,8.7517824 c-0.1914024,0.7304544,0.2550733,1.4847364,1.0132616,1.6675444l1.7347314,0.4156179 C6.0813789,11.0208788,6.7860527,10.5134659,6.9583149,9.8466825z M5.266551,8.9006071L4.4903941,8.714283l0.5578017-2.1667547 c0.1281223-0.4917874,0.5589733-0.8378744,1.0632601-0.9093575L5.266551,8.9006071L5.266551,8.9006071z M16.874918,6.2498779 h-0.6249886c-0.3453045,0-0.6249866,0.2796822-0.6249866,0.6249876v0.9374819h-1.4499722l-1.9566021-2.232769 c-0.3746014-0.3742118-0.8726387-0.5796762-1.401144-0.5796762c-0.9128723,0-1.7038727,0.6183472-1.9237909,1.5027051 l-0.8800602,3.5186806c-0.1867156,0.7410011,0.0328112,1.5366888,0.5749884,2.079257l2.8831472,2.8831463 c0.0585918,0.0585928,0.091404,0.138669,0.091404,0.2210894v3.8573475c0,0.5175667,0.4199133,0.9374809,0.9374819,0.9374809 c0.5175676,0,0.9374809-0.4199142,0.9374809-0.9374809v-3.8573475c0-0.5839729-0.2269478-1.1335707-0.6410027-1.5464535 l-1.9675398-1.9679308l0.9589663-3.7581291l1.2562246,1.4355183c0.1781216,0.2031212,0.4359293,0.3199158,0.7054548,0.3199158 h1.8749638v9.6873102C15.6249428,19.7203178,15.9046249,20,16.2499294,20h0.6249886 c0.3453064,0,0.6249886-0.2796822,0.6249886-0.6249886V6.8748655C17.4999065,6.5295601,17.2202244,6.2498779,16.874918,6.2498779z  M7.260653,12.4060078l-1.6069999,6.4283905c-0.1257787,0.5023327,0.1792936,1.0113068,0.6824083,1.1370869 c0.0757799,0.0187511,0.1527319,0.0281239,0.2281208,0.0281239c0.4199138,0,0.8019376-0.2843685,0.9081855-0.709753 l1.3073964-5.2295847l-1.0761509-1.0761499C7.5293975,12.809906,7.3911195,12.609519,7.260653,12.4060078z M11.8746252,3.7499268 c1.0355263,0,1.8749628-0.8394368,1.8749628-1.8749634S12.9101515,0,11.8746252,0S9.9996614,0.8394367,9.9996614,1.8749634 S10.839098,3.7499268,11.8746252,3.7499268L11.8746252,3.7499268z" />
</svg>