<svg width="20" height="20" viewBox="0 0 20 20" xmlns="http://www.w3.org/2000/svg">
  <path d="M10,6.5625c-1.8984375,0-3.4375,1.5390625-3.4375,3.4375S8.1015625,13.4375,10,13.4375 S13.4375,11.8984375,13.4375,10S11.8984375,6.5625,10,6.5625z M10,11.5625c-0.8617191,0-1.5625-0.7007809-1.5625-1.5625 S9.1382809,8.4375,10,8.4375S11.5625,9.1382809,11.5625,10S10.8617191,11.5625,10,11.5625z M19.375,9.0625h-1.9398441 C17.0113277,5.6714845,14.328516,2.988672,10.9375,2.5648439V0.625c0-0.3453125-0.2796879-0.625-0.625-0.625h-0.625 c-0.3453121,0-0.625,0.2796875-0.625,0.625v1.9398439C5.6714845,2.988672,2.988672,5.6714845,2.5648439,9.0625H0.625 C0.2796875,9.0625,0,9.3421879,0,9.6875v0.625c0,0.3453121,0.2796875,0.625,0.625,0.625h1.9398439 C2.988672,14.328516,5.6714845,17.0113277,9.0625,17.4351559V19.375c0,0.3453121,0.2796879,0.625,0.625,0.625h0.625 c0.3453121,0,0.625-0.2796879,0.625-0.625v-1.9398441c3.391016-0.4238281,6.0738277-3.1070309,6.4976559-6.4976559H19.375 c0.3453121,0,0.625-0.2796879,0.625-0.625v-0.625C20,9.3421879,19.7203121,9.0625,19.375,9.0625z M10,15.625 c-3.1015625,0-5.625-2.5234375-5.625-5.625S6.8984375,4.375,10,4.375S15.625,6.8984375,15.625,10S13.1015625,15.625,10,15.625z" />
</svg>