<svg width="50" height="50" viewBox="0 0 50 50" xmlns="http://www.w3.org/2000/svg">
  <path d="M49.4778061,24.0878296l-6.5096397-3.9084244l3.6844368-6.6425543 c0.388298-0.6962595-0.1071167-1.5531864-0.9104919-1.5665817l-7.5939445-0.1320648l-0.1318283-7.5803232 c0-0.8033743-0.8703232-1.2987902-1.5665817-0.9104893l-6.6325111,3.6788709l-3.9050827-6.5040751 c-0.4150734-0.696251-1.4192905-0.696251-1.8209782,0.0000082l-3.9117737,6.5152059l-6.6525993-3.6900098 c-0.6828651-0.3883009-1.5531864,0.107115-1.5665808,0.9104893l-0.1320658,7.593955l-7.5803232,0.1318283 c-0.8033743,0-1.29879,0.8569269-0.9104974,1.5665808l3.6788709,6.6325111l-6.5040669,3.9050808 c-0.6828648,0.4150734-0.6828648,1.4058971,0,1.8209782l6.5096402,3.9084244l-3.6844442,6.6425571 c-0.3882926,0.6962585,0.1071231,1.5531845,0.9104974,1.5665779l7.5937176,0.1320686l0.1320658,7.5937157 c0,0.8033752,0.8703213,1.2987823,1.5665731,0.9104881l6.6425543-3.6844444l3.908432,6.5096436 c0.4016876,0.6828728,1.4059048,0.6828728,1.8209782,0l3.9084244-6.5096436l6.6425552,3.6844444 c0.6828728,0.3882942,1.553196-0.1071129,1.5665817-0.9104881l0.1320648-7.593956l7.5803299-0.1318283 c0.8033676-0.0133934,1.2987823-0.8703194,0.9104919-1.5665779l-3.6844444-6.6425571l6.5096397-3.908432 C50.1740646,25.4937344,50.1740646,24.5029106,49.4778061,24.0878296z M11.1970234,24.8242645 c0-7.806118,6.1993771-14.1527767,13.8314323-14.1527767s13.8314228,6.3466587,13.8314228,14.1527767 S32.660511,38.9770317,25.0284557,38.9770317S11.1970234,32.6303825,11.1970234,24.8242645z" />
  <path d="M29.1926079,27.9708138l4.5658417-10.2162399c0.5221939-1.1782894-0.656086-2.3967361-1.8075943-1.8611536 l-9.988615,4.6729555c-0.482029,0.227623-0.8703213,0.6159248-1.0845604,1.1113396l-4.5658398,10.2162399 c-0.5221958,1.1782799,0.6560841,2.3967285,1.8075924,1.861145l9.988615-4.6729546 C28.5900764,28.8545208,28.9783707,28.4662209,29.1926079,27.9708138z M26.5950279,26.4176178 c-0.8569279,0.883709-2.2628326,0.883709-3.1197681,0c-0.8569355-0.8837166-0.8569355-2.3163929,0-3.2001095 c0.8569279-0.883709,2.2628326-0.883709,3.1197681,0C27.4519634,24.1146107,27.4519634,25.5339108,26.5950279,26.4176178z" />
</svg>