<svg width="20" height="20" viewBox="0 0 20 20" xmlns="http://www.w3.org/2000/svg">
  <path d="M7.4552274,13.5801439c0,0-0.0039043-0.0039043-0.0039043-0.0078096l-0.7965355,1.9913378 c-0.0780916,0.1952295-0.1952291,0.3748407-0.347508,0.5232153L4.0270023,18.371069 c-0.3670311,0.3670311-0.3670311,0.9605293,0,1.3236542c0.1835155,0.1835155,0.4216952,0.2733212,0.6598744,0.2733212 c0.2381797,0,0.4802642-0.0898056,0.6598749-0.2733212l2.2802773-2.2841816 c0.3318896-0.3318901,0.5856872-0.7223473,0.7574897-1.1518517l0.5271187-1.3158464L7.498178,13.6348076 C7.498178,13.6348076,7.4552279,13.5801439,7.4552274,13.5801439z M11.8674078,3.7484009 c1.0347147,0,1.8702965-0.8394856,1.8702965-1.8742005S12.8982182,0,11.8674078,0 c-1.0347147,0-1.8702965,0.8394856-1.8702965,1.8742005s0.8355808,1.8742005,1.8702955,1.8742005H11.8674078z  M15.9555073,10.5775185l-1.144043-1.1284246c-0.035141-0.035141-0.0624733-0.0780916-0.0780916-0.1249466L14.229681,7.8091688 c-0.5622606-1.6828761-2.124094-2.8113008-3.8967752-2.8113008c-1.3587961,0-2.0694304,0.3436036-3.7366877,1.015192 C5.78016,6.3410449,5.1163807,6.9540648,4.7142086,7.7623138L4.1519485,8.9766397 c-0.5193098,1.120616,1.1752801,1.9171505,1.6984944,0.7887259L6.3970847,8.578372 c0.1874199-0.3748398,0.5036912-0.6637788,0.890245-0.8199625c0.8472948-0.3396988,1.2924175-0.5271187,1.7297306-0.6676841 L8.2439537,10.183156c-0.1835155,0.7379656,0.011714,1.5149775,0.5817823,2.1319027l3.0846214,2.8503466 c0.2303705,0.2147522,0.3904591,0.4880733,0.460741,0.7965355l0.7613945,3.3110867 c0.1015196,0.449028,0.5622597,0.8277721,1.120615,0.7028255c0.5036917-0.1171379,0.8160582-0.6208286,0.6989212-1.1245193 l-0.7613945-3.3071842c-0.1561832-0.6754923-0.507596-1.2807035-1.015192-1.7531586l-2.100666-1.9366732l1.0230007-4.0920048 c0.2889395,0.3787441,0.2928438,0.4919777,0.8511992,2.1631403c0.1093292,0.3240795,0.2928438,0.6208286,0.5388336,0.8668175 l1.144042,1.1323299c0.8707218,0.8394852,2.2139006-0.4646454,1.3236542-1.3470821H15.9555073z" />
</svg>