<svg width="20" height="20" viewBox="0 0 20 20" xmlns="http://www.w3.org/2000/svg">
  <path d="M9.2961731,7.7777557h1.4076529c0.2475719,0,0.4402819-0.2142382,0.4142399-0.4604211l-0.1597242-1.5132093 c-0.0149279-0.1413932-0.1342115-0.2486887-0.276391-0.2486138H9.3177004c-0.1420155,0-0.2614613,0.1072927-0.276391,0.2486138 L8.8815851,7.3173347C8.8558903,7.5635176,9.0489483,7.7777557,9.2961731,7.7777557z M9.0402679,11.6666832h1.9198103 c0.3298645,0,0.5871592-0.2857666,0.5524368-0.6138945l-0.1760445-1.6666832 c-0.0298605-0.2826424-0.2680578-0.4972277-0.5524359-0.4972277H9.2163115c-0.2843781,0-0.5225754,0.2145853-0.5524368,0.4972277 l-0.1760435,1.6666832C8.4531088,11.3809175,8.7104034,11.6666832,9.0402679,11.6666832z M9.4937439,4.4443893h1.0125103 c0.1649323,0,0.2934065-0.1430573,0.276391-0.3069472l-0.0586805-0.5555613 c-0.0149288-0.1413929-0.1342125-0.2486885-0.276392-0.2486136H9.5524254c-0.1420155,0-0.2614613,0.1072927-0.276391,0.2486136 L9.2173529,4.1374421C9.2003393,4.3013325,9.3288116,4.4443893,9.4937439,4.4443893z M11.1944561,12.7778053H8.8055429 c-0.2843781,0-0.5225744,0.2145853-0.5524359,0.4972277l-0.2934055,2.7778044 c-0.0347228,0.3281288,0.2225714,0.6138954,0.5524359,0.6138954h2.9753771c0.3298645,0,0.5871582-0.2857666,0.5524359-0.6138954 l-0.2934055-2.7778044C11.7170305,12.9923906,11.4788342,12.7778053,11.1944561,12.7778053z M6.0190568,3.3332672H5.4634957 C5.3514113,3.3332202,5.250309,3.4006217,5.207243,3.5041022L0.0433026,15.8976278 c-0.1524321,0.3656282,0.1163206,0.769105,0.5128524,0.769105h1.5277929c0.2468774,0,0.4642408-0.1628494,0.5333385-0.4000034 L6.2857256,3.6888261C6.3374624,3.5110464,6.2041273,3.3332672,6.0190568,3.3332672z M19.9566956,15.8976278L14.7931023,3.5041022 c-0.0431414-0.1034184-0.1441975-0.1707885-0.2562532-0.170835H13.981288c-0.18507,0-0.3184061,0.1777797-0.2666683,0.3555589 l3.6684389,12.5779018c0.0690956,0.2370682,0.2864075,0.4000511,0.5333385,0.4000053h1.527792 C19.8403721,16.6667328,20.109127,16.2632561,19.9566956,15.8976278z" />
</svg>