<svg width="20" height="20" viewBox="0 0 20 20" xmlns="http://www.w3.org/2000/svg">
  <path d="M10,0C4.4758062,0,0,4.4758062,0,10s4.4758062,10,10,10s10-4.4758062,10-10S15.5241938,0,10,0z M10,18.0645161 c-4.4475808,0-8.0645161-3.6169357-8.0645161-8.0645161S5.5524192,1.9354838,10,1.9354838S18.0645161,5.5524192,18.0645161,10 S14.4475803,18.0645161,10,18.0645161z M14.2580652,11.9596777C13.2137098,12.2943544,11.6612911,12.4879036,10,12.4879036 s-3.2096777-0.1935482-4.2580647-0.5282259c-0.3991933-0.125-0.782258,0.217742-0.7137094,0.6169348 c0.3185477,1.8991938,2.875,3.2258062,4.9717741,3.2258062s4.6491928-1.3266125,4.9717741-3.2258062 c0.0645161-0.3951607-0.3104849-0.7419348-0.7137108-0.6169348H14.2580652z M6.7741938,9.3548384 c0.7137094,0,1.2903223-0.5766125,1.2903223-1.2903223S7.4879031,6.7741938,6.7741938,6.7741938 S5.483871,7.3508067,5.483871,8.0645161S6.0604839,9.3548384,6.7741938,9.3548384z M13.2258062,9.3548384 c0.7137108,0,1.2903233-0.5766125,1.2903233-1.2903223s-0.5766125-1.2903223-1.2903233-1.2903223 c-0.7137098,0-1.2903223,0.5766129-1.2903223,1.2903223S12.5120964,9.3548384,13.2258062,9.3548384z" />
</svg>