<svg width="20" height="20" viewBox="0 0 20 20" xmlns="http://www.w3.org/2000/svg">
  <path d="M13.875,1.5601218l-0.8984375,1.5312505l-0.3632803-1.3320315 c-0.0898428-0.3281248-0.4335938-0.5234373-0.765625-0.433594l-0.6054688,0.1601565 c-0.3320312,0.085938-0.531251,0.425781-0.4414062,0.7539058l0.8476553,3.1132817L10,8.1577778L8.3515625,5.349184 l0.8476562-3.1132803C9.2890625,1.907779,9.0898438,1.5718412,8.7578125,1.481998L8.1523438,1.3218415 c-0.3320312-0.085938-0.6757812,0.1054692-0.7656255,0.433594L7.023437,3.087467L6.1249995,1.5562165 C5.953125,1.2632477,5.570312,1.161685,5.2695312,1.3296545L4.726562,1.638248 C4.4257812,1.8062162,4.3242183,2.185123,4.4960933,2.4780917l0.8984375,1.5312505l-1.3554683-0.355469 c-0.3320315-0.085938-0.6757817,0.1054692-0.7656252,0.433594l-0.160156,0.5937505 c-0.089844,0.3281245,0.109375,0.6640625,0.4414062,0.7539058L6.71875,6.2671542l1.6484375,2.8085933H5.0664062L2.75,6.7984033 c-0.2421873-0.2382817-0.640625-0.2382817-0.8828124,0L1.4257814,7.231997c-0.2421875,0.2382817-0.2421875,0.6289067,0,0.867188 l0.9921874,0.9726562H0.625C0.28125,9.0718412,0,9.3452787,0,9.6851225v0.6132812c0,0.3398438,0.28125,0.6132812,0.625,0.6132812 h1.8007812l-0.9921876,0.9726553c-0.2421875,0.2382822-0.2421875,0.6289072,0,0.8671875L1.875,13.2007465 c0.2421875,0.2382812,0.640625,0.2382812,0.8828125,0l2.3164062-2.2773438H8.375l-1.6484375,2.8085938L3.5625,14.5640287 C3.2304688,14.6499653,3.03125,14.98981,3.1210935,15.317935l0.1601565,0.59375 c0.0898438,0.328124,0.4335938,0.5234365,0.765625,0.4335928L5.4023438,15.98981l-0.8984375,1.531249 c-0.171875,0.2929688-0.0703125,0.6679688,0.2304688,0.8398438l0.5429688,0.3085938 c0.3007812,0.1679688,0.6796875,0.0703125,0.8554688-0.2265625l0.8984375-1.53125l0.3554688,1.3320312 c0.0898442,0.328125,0.4335942,0.5234375,0.765625,0.4335938l0.6054688-0.1601562 c0.3320312-0.0859375,0.53125-0.4257812,0.4414062-0.7539062l-0.8476562-3.1132812L10,11.8413725l1.6484375,2.8085938 l-0.8476562,3.1132803c-0.0898438,0.328125,0.109375,0.6640625,0.4414062,0.7539062l0.6054688,0.1601562 c0.3320312,0.0859375,0.6757803-0.1054688,0.765625-0.4335938l0.3632803-1.3320312l0.8984375,1.53125 c0.171875,0.2929688,0.5546885,0.3945312,0.8554688,0.2265625l0.5429697-0.3085938 c0.3007812-0.1679688,0.4023438-0.546875,0.2304688-0.8398438l-0.8984375-1.531249l1.3554688,0.3554678 c0.3320312,0.0859375,0.6757812-0.1054688,0.765625-0.4335928l0.1601562-0.59375 c0.0898438-0.328125-0.1093731-0.6640625-0.4414043-0.7539062l-3.1640635-0.8320322l-1.6484375-2.8085928h3.3007812 L17.25,13.2007475c0.2421875,0.2382812,0.640625,0.2382812,0.8828125,0l0.4414062-0.4335938 c0.2421875-0.2382822,0.2421875-0.6289072,0-0.8671875L17.5820312,10.92731H19.375c0.34375,0,0.625-0.2734375,0.625-0.6132812 V9.7007475c0-0.3398438-0.28125-0.6132812-0.625-0.6132812h-1.8007812L18.5664062,8.11481 c0.2421875-0.2382817,0.2421875-0.6289067,0-0.867188L18.125,6.8140278c-0.2421875-0.2382812-0.640625-0.2382812-0.8828125,0 l-2.3164062,2.2773438H11.625l1.6484385-2.8085938L16.4375,5.450747c0.3320312-0.085938,0.53125-0.4257812,0.4414062-0.7539058 L16.71875,4.1030908c-0.0898438-0.3281248-0.4335938-0.5234373-0.765625-0.433594l-1.3554697,0.355469l0.8984375-1.5312505 c0.171875-0.2929688,0.0703125-0.667969-0.2304678-0.8398438L14.7226562,1.345278 c-0.2929688-0.1796877-0.6757812-0.0820315-0.8476572,0.2148438H13.875z" />
</svg>