<svg width="20" height="20" viewBox="0 0 20 20" xmlns="http://www.w3.org/2000/svg">
  <path d="M19.3009186,8.6685219l-2.3354797-1.581954l0.5350513-2.7733021 c0.1015434-0.5155995-0.0624886-1.0468237-0.4335098-1.4218054c-0.3749256-0.3710756-0.9060726-0.53513-1.4137859-0.4335725 l-2.7689905,0.53513l-1.577817-2.3397295c-0.5897284-0.8710512-2.026947-0.8710512-2.6166763,0L7.1118941,2.9930179 L4.3468089,2.4578876c-0.5194314-0.097651-1.0466721,0.0624974-1.4176934,0.437479S2.3940637,3.7976663,2.4956064,4.3132658 l0.5350518,2.7733021l-2.3354816,1.581954C0.2577622,8.9653826,0,9.45364,0,9.980958s0.2616676,1.0155754,0.6951767,1.3085299 l2.3354816,1.581954l-0.5350518,2.7733021c-0.1015427,0.5156012,0.0624878,1.0468225,0.4335091,1.4178991 c0.3710213,0.3710747,0.8943567,0.5351315,1.4176919,0.4335728l2.7650852-0.5351315l1.577817,2.3397293 C8.9826212,19.7382927,9.4747124,20,9.9980478,20c0.5233345,0,1.0154266-0.2617073,1.3083382-0.6952782l1.577817-2.3397293 l2.7689905,0.5351315c0.5233355,0.105463,1.04667-0.0624981,1.4176912-0.4335728 c0.3710213-0.3710766,0.531147-0.9022999,0.4335098-1.4179001l-0.5350533-2.7733021l2.3354816-1.581954 C19.7383327,11.0004406,20,10.5082769,20,9.9848652c-0.0039062-0.5312243-0.2616673-1.0194817-0.6990814-1.3163414V8.6685219z  M14.8916245,12.0121088l0.6873655,3.5623264l-3.5539932-0.6874666L9.9980478,17.890728l-2.026948-3.0076656L4.4210119,15.570529 l0.6873655-3.5623255L2.1089633,9.9770527l2.9994142-2.0311503l-0.6873655-3.562326L7.9750056,5.071043l2.0230422-2.9998548 l2.026948,3.0037591l3.5539932-0.6874661l-0.6873665,3.5584197l2.9994144,2.0311508l-2.9994144,2.0350571H14.8916245z  M9.9980478,5.9381871c-2.2378445,0-4.061707,1.8241291-4.061707,4.0623012s1.8238626,4.0623016,4.061707,4.0623016 s4.0617065-1.8241301,4.0617065-4.0623016S12.2358913,5.9381871,9.9980478,5.9381871z M9.9980478,12.1878815 c-1.2067957,0-2.1870732-0.9804211-2.1870732-2.1873932s0.9802775-2.1873932,2.1870732-2.1873932 s2.1870728,0.9804211,2.1870728,2.1873932S11.2048435,12.1878815,9.9980478,12.1878815z" />
</svg>