<svg width="20" height="20" viewBox="0 0 20 20" xmlns="http://www.w3.org/2000/svg">
  <path d="M10.0004854,6.2498193c-2.0665064,0-3.7501822,1.6836758-3.7501822,3.7501817s1.6836758,3.7501822,3.7501822,3.7501822 s3.7501822-1.6836758,3.7501822-3.7501822S12.0669918,6.2498193,10.0004854,6.2498193z M19.6259518,9.3945026l-3.6993971-1.8477459 l1.3086576-3.9220653c0.1757889-0.5312755-0.3281422-1.0352063-0.8555107-0.8555102l-3.9220648,1.3086572l-1.8516521-3.7033048 c-0.2500124-0.5000243-0.9609842-0.5000243-1.2109966,0l-1.8477459,3.699398L3.6212695,2.7652752 C3.0899937,2.5894854,2.5860629,3.0934162,2.765759,3.6207855L4.0744162,7.542851l-3.699398,1.8516517 c-0.5000243,0.2500124-0.5000243,0.9609842,0,1.2109966l3.699398,1.8477449L2.765759,16.3792171 C2.5899694,16.9104919,3.0939,17.414423,3.6212695,17.234726l3.9220655-1.3086567l1.8477459,3.699398 c0.2500124,0.5000229,0.9609842,0.5000229,1.2109966,0l1.8477459-3.699399l3.9220657,1.3086576 c0.5312748,0.1757889,1.0352058-0.3281422,0.8555088-0.8555107l-1.3086567-3.9220648l3.699398-1.8477459 c0.5078373-0.2539186,0.5078373-0.9648905,0.0078144-1.2149029L19.6259518,9.3945026z M13.5358133,13.5353289 c-1.9493132,1.9493132-5.1213427,1.9493132-7.0706558,0s-1.9493136-5.1213427,0-7.0706553s5.1213427-1.9493136,7.0706558,0 S15.4851265,11.5860157,13.5358133,13.5353289z" />
</svg>