<svg width="20" height="20" viewBox="0 0 20 20" xmlns="http://www.w3.org/2000/svg">
  <path d="M17,12c-0.0187492,0-0.0343742,0.0062504-0.0499992,0.0062504C16.984375,11.84375,17,11.6750002,17,11.5 c0-1.3812504-1.1187496-2.5-2.5-2.5c-0.7687502,0-1.4468746,0.3531246-1.90625,0.8999996C12.0124998,8.7781248,10.8500004,8,9.5,8 C7.5656252,8,6,9.5656252,6,11.5c0,0.2281246,0.0250001,0.4468746,0.0656252,0.6625004C4.8687501,12.5562506,4,13.671875,4,15 c0,1.65625,1.34375,3,3,3h10c1.65625,0,3-1.34375,3-3S18.65625,12,17,12z M9.5,7 c1.2718754,0,2.4562502,0.5374999,3.2937498,1.453125c0.3062496-0.1750002,0.640625-0.2937498,0.9875002-0.3687496 C13.9156246,7.7468748,14,7.3874998,14,7c0-1.65625-1.34375-3-3-3c-0.4406252,0-0.8562498,0.0999999-1.234375,0.2718749 C9.2687502,2.9468751,8,2,6.5,2C4.7375002,2,3.2906251,3.309375,3.05,5.0062499C3.034375,5.0062499,3.01875,5,3,5 C1.34375,5,0,6.34375,0,8s1.34375,3,3,3h2.0500002C5.3031254,8.7562504,7.1906252,7,9.5,7z" />
</svg>