<svg width="20" height="20" viewBox="0 0 20 20" xmlns="http://www.w3.org/2000/svg">
  <path d="M5,12h10c1.65625,0,3-1.34375,3-3s-1.34375-3-3-3c-0.0187502,0-0.0343752,0.0062499-0.0500002,0.0062499 C14.984375,5.84375,15,5.6750002,15,5.5C15,4.1187501,13.8812504,3,12.5,3c-0.7687502,0-1.4468746,0.3531251-1.90625,0.9000001 C10.0124998,2.7750001,8.8531246,2,7.5,2C5.5656252,2,4,3.565625,4,5.5c0,0.2281251,0.0250001,0.4468751,0.0656252,0.6624999 C2.8687501,6.5562501,2,7.671875,2,9C2,10.65625,3.34375,12,5,12z M6.5,16.5h-4C2.2249999,16.5,2,16.7250004,2,17v0.5 C2,17.7749996,2.2249999,18,2.5,18h4C6.7750001,18,7,17.7749996,7,17.5V17C7,16.7250004,6.7750001,16.5,6.5,16.5z M19.5,16.5H9 c-0.2749996,0-0.5,0.2250004-0.5,0.5v0.5C8.5,17.7749996,8.7250004,18,9,18h10.5c0.2749996,0,0.5-0.2250004,0.5-0.5V17 C20,16.7250004,19.7749996,16.5,19.5,16.5z M18,14.75v-0.5c0-0.2749996-0.2250004-0.5-0.5-0.5h-17c-0.275,0-0.5,0.2250004-0.5,0.5 v0.5c0,0.2749996,0.225,0.5,0.5,0.5h17C17.7749996,15.25,18,15.0249996,18,14.75z" />
</svg>