<svg width="20" height="20" viewBox="0 0 20 20" xmlns="http://www.w3.org/2000/svg">
  <path d="M17.9750004,12.1765623C17.9812508,12.1171875,18,12.0609369,18,12.0015621c0-1.1031246-0.8968754-2-2-2 c-0.3937502,0-0.7562504,0.1187496-1.0656252,0.3125c-0.5500002-1.2124996-1.765625-2.0625-3.1843748-2.0625 c-1.9312496,0-3.5,1.5656252-3.5,3.5c0,0.09375,0.0218754,0.1812496,0.0281248,0.2718754 C6.7281246,12.1390629,5.5,13.4203129,5.5,15.0015631c0,1.656249,1.34375,2.999999,3,2.999999H17c1.65625,0,3-1.34375,3-2.999999 c0-1.3156252-0.8500004-2.4187498-2.0249996-2.8249998V12.1765623z M4.5250006,11.4703121 c-1.3656247-1.3656254-1.3656247-3.5843749,0-4.9468751c1.3656249-1.3656249,3.5843744-1.3656249,4.9499998,0 c0.3031254,0.3031249,0.5281248,0.6531248,0.6968746,1.0218749c0.3062496-0.1156249,0.6281252-0.1875,0.9593754-0.234375 L12.0625,4.5328121c0.125-0.3718753-0.2281246-0.7218752-0.6000004-0.6000001L8.71875,4.8484368L7.421875,2.260937 c-0.171875-0.35-0.671875-0.35-0.8468752,0L5.28125,4.8484368L2.5343752,3.932812 c-0.3687499-0.121875-0.7218751,0.23125-0.6,0.6000001l0.915625,2.7437496L0.2625,8.5734367 c-0.35,0.1750002-0.35,0.671875,0,0.8468752l2.5875001,1.2937498L1.934375,13.4578123 c-0.125,0.3718748,0.2281251,0.7218752,0.6000001,0.6000004l2.3781247-0.7906246 c0.1906252-0.3874998,0.4375-0.7406254,0.7375002-1.046875c-0.4093752-0.1687498-0.7937498-0.4187498-1.125-0.75 L4.5250006,11.4703121z M4.3750005,8.9953127c0,1.2749996,0.9156251,2.3374996,2.1218753,2.5718746 c0.25-0.1468754,0.5093751-0.2749996,0.7874999-0.3656254c0.1687498-1.3843746,0.9687505-2.578125,2.1062503-3.28125 C8.9781246,7.0109367,8.0625,6.3734369,7,6.3734369c-1.4468751,0-2.625,1.1750002-2.625,2.6218748L4.3750005,8.9953127z" />
</svg>