<svg width="20" height="20" viewBox="0 0 20 20" xmlns="http://www.w3.org/2000/svg">
  <path d="M11.9020138,13.3574238c0.1979036-0.333312,0.3194237-0.7187042,0.3194237-1.1353445 C12.2214375,10.9964638,11.2249737,10,9.9993582,10c-0.5971842,0-1.1388159,0.2395678-1.5380955,0.6214876 c-0.5659366-1.0277119-1.6492-1.7325277-2.9060636-1.7325277c-1.8401599,0-3.3331196,1.49296-3.3331196,3.3331194 c0,0.0694399,0.01736,0.1319361,0.0208321,0.1979046C0.9409118,12.874815,0,14.1004314,0,15.5551987 c0,1.8401604,1.4929597,3.3331203,3.3331194,3.3331203h8.332798c1.5346251,0,2.7776003-1.2429752,2.7776003-2.7775993 C14.4435177,14.6559515,13.3220615,13.4789438,11.9020138,13.3574238z M19.6272125,11.4721289 c-3.2324314,0.6145439-6.1975193-1.8644638-6.1975193-5.1281433c0-1.8818235,1.0068798-3.6108792,2.6421909-4.5413752 c0.2534561-0.142352,0.1874886-0.524272-0.0972147-0.579824c-0.4062243-0.0729128-0.8124475-0.1111048-1.2186718-0.1111048 c-3.6768475,0-6.6627674,2.9824476-6.6627674,6.6662388c0,0.2951198,0.0243044,0.5832963,0.0624962,0.8679996 c0.2048483,0.1492968,0.4027529,0.3090086,0.5798244,0.4930239c0.3958073-0.1631832,0.8228636-0.2499838,1.2638073-0.2499838 c1.8366871,0,3.3331194,1.4964323,3.3331194,3.3331194c0,0.1249924-0.0069447,0.2499847-0.0208321,0.3715048 c0.8193922,0.3749752,1.472127,1.0242395,1.8575191,1.826272c1.8887672-0.1180477,3.6004639-1.0172958,4.7601109-2.4442873 C20.1132927,11.7498884,19.9119167,11.4165764,19.6272125,11.4721289z" />
</svg>