<svg width="20" height="20" viewBox="0 0 20 20" xmlns="http://www.w3.org/2000/svg">
  <path d="M16.25,5c-0.0234375,0-0.0429688,0.0078125-0.0625,0.0078125C16.2304688,4.8046875,16.25,4.59375,16.25,4.375 c0-1.7265625-1.3984375-3.125-3.125-3.125c-0.9609375,0-1.8085938,0.4414062-2.3828125,1.125C10.015625,0.96875,8.5664062,0,6.875,0 C4.4570312,0,2.5,1.9570312,2.5,4.375c0,0.2851562,0.03125,0.5585938,0.0820312,0.828125C1.0859375,5.6953125,0,7.0898438,0,8.75 c0,2.0703125,1.6796875,3.75,3.75,3.75h12.5c2.0703125,0,3.75-1.6796875,3.75-3.75S18.3203125,5,16.25,5z M1.875,14.375 c-0.34375,0-0.625,0.28125-0.625,0.625v3.125c0,0.34375,0.28125,0.625,0.625,0.625S2.5,18.46875,2.5,18.125V15 C2.5,14.65625,2.21875,14.375,1.875,14.375z M5.625,15.625C5.28125,15.625,5,15.90625,5,16.25v3.125C5,19.71875,5.28125,20,5.625,20 s0.625-0.28125,0.625-0.625V16.25C6.25,15.90625,5.96875,15.625,5.625,15.625z M9.375,14.375c-0.34375,0-0.625,0.28125-0.625,0.625 v3.125c0,0.34375,0.28125,0.625,0.625,0.625S10,18.46875,10,18.125V15C10,14.65625,9.71875,14.375,9.375,14.375z M13.125,15.625 c-0.34375,0-0.625,0.28125-0.625,0.625v3.125c0,0.34375,0.28125,0.625,0.625,0.625s0.625-0.28125,0.625-0.625V16.25 C13.75,15.90625,13.46875,15.625,13.125,15.625z M16.875,14.375c-0.34375,0-0.625,0.28125-0.625,0.625v3.125 c0,0.34375,0.28125,0.625,0.625,0.625s0.625-0.28125,0.625-0.625V15C17.5,14.65625,17.21875,14.375,16.875,14.375z" />
</svg>