<svg width="20" height="20" viewBox="0 0 20 20" xmlns="http://www.w3.org/2000/svg">
  <path d="M19.9980469,8.748291c0-2.0699081-1.6793594-3.7492676-3.7492676-3.7492676 c-0.0234337,0-0.0429611,0.0078106-0.0624886,0.0078106c0.0429611-0.2030849,0.0624886-0.4139814,0.0624886-0.6326885 c0-1.7262251-1.3981638-3.1243896-3.1243896-3.1243896c-0.9607506,0-1.8082399,0.4413199-2.3823471,1.1247802 C10.0156221,0.9685608,8.5666866,0,6.8756104,0C4.4581141,0,2.5014651,1.9566489,2.5014651,4.3741455 c0,0.2851005,0.031244,0.5584846,0.0820153,0.8279629C1.0876788,5.6942,0.0019535,7.088459,0.0019535,8.748291 c0,2.0699081,1.6793593,3.7492676,3.7492676,3.7492676h12.4975586C18.3186874,12.4975586,19.9980469,10.8181992,19.9980469,8.748291 z M3.4075379,13.8137074c-0.3085334-0.1523132-0.6834602-0.027338-0.8396797,0.2811956l-2.4995117,4.9990244 c-0.152314,0.3085327-0.0312439,0.6834602,0.281195,0.8396797C0.4393679,19.9765663,0.5370051,20,0.6307367,20 c0.2265183,0,0.449131-0.1249752,0.5584847-0.3436832l2.4995115-4.9990225 c0.1484087-0.3163443,0.0273383-0.6912718-0.2811949-0.843585V13.8137074z M13.4055853,13.8137074 c-0.3085337-0.1523132-0.6834602-0.027338-0.8396797,0.2811956l-2.4995117,4.9990244 c-0.1523142,0.3085327-0.0312433,0.6834602,0.2811956,0.8396797C10.4374151,19.9765663,10.5350523,20,10.6287851,20 c0.2265177,0,0.449131-0.1249752,0.5584841-0.3436832l2.4995117-4.9990225 c0.1484079-0.3163443,0.027339-0.6912718-0.2811956-0.843585V13.8137074z M19.3302097,15.19625l-0.312439-0.5428629 c-0.0859222-0.1484079-0.2772903-0.1991796-0.4256992-0.1132584l-1.0935364,0.6287832v-1.1091585 c0-0.1718416-0.1405964-0.312439-0.312439-0.312439h-0.624876c-0.1718426,0-0.312439,0.1405973-0.312439,0.312439v1.1091576 l-1.0935373-0.6287832c-0.1484079-0.0859213-0.3397779-0.0351496-0.4256973,0.1132584l-0.312439,0.5428629 c-0.0859213,0.1484079-0.0351496,0.3397779,0.1132584,0.4256973l1.0896311,0.6248779l-1.0896311,0.6248779 c-0.1484079,0.0859222-0.1991796,0.2772903-0.1132584,0.4256973l0.312439,0.5428638 c0.0859203,0.148407,0.2772894,0.1991787,0.4256973,0.1132584l1.0935373-0.6287842v1.1091614 c0,0.1718407,0.1405964,0.312439,0.312439,0.312439h0.624876c0.1718426,0,0.312439-0.1405983,0.312439-0.312439v-1.1091595 l1.0935364,0.6287842c0.1484089,0.0859222,0.3397789,0.0351486,0.4256992-0.1132584l0.312439-0.5428619 c0.0859203-0.1484089,0.0351486-0.3397789-0.1132603-0.4256992l-1.0896301-0.6248779l1.0896301-0.624877 c0.1484089-0.0859213,0.1991806-0.2772903,0.1132603-0.4256983V15.19625z M9.3321629,15.19625l-0.312439-0.5428629 c-0.0859203-0.1484079-0.2772903-0.1991796-0.4256983-0.1132584l-1.0935359,0.6287832v-1.1091585 c0-0.1718416-0.1405978-0.312439-0.312439-0.312439H6.5631728c-0.1718411,0-0.312439,0.1405973-0.312439,0.312439v1.1091576 l-1.0935364-0.6287832c-0.1484089-0.0859213-0.3397775-0.0351496-0.4256983,0.1132584l-0.312439,0.5428629 c-0.0859203,0.1484079-0.0351496,0.3397779,0.1132593,0.4256973l1.0896306,0.6248779l-1.0896311,0.6248779 c-0.1484084,0.0859222-0.1991796,0.2772903-0.1132588,0.4256973l0.312439,0.5428638 c0.0859203,0.148407,0.2772894,0.1991787,0.4256978,0.1132584l1.0935364-0.6287842v1.1091614 c0,0.1718407,0.1405973,0.312439,0.3124385,0.312439h0.6248779c0.1718416,0,0.312439-0.1405983,0.312439-0.312439v-1.1091595 l1.0935369,0.6287842c0.1484079,0.0859222,0.339777,0.0351486,0.4256973-0.1132584l0.312439-0.5428619 c0.0859203-0.1484089,0.0351496-0.3397789-0.1132584-0.4256992l-1.0896311-0.6248779l1.0896311-0.624877 c0.1484079-0.0859213,0.1991796-0.2772903,0.1132584-0.4256983L9.3321629,15.19625z" />
</svg>