<svg width="20" height="20" viewBox="0 0 20 20" xmlns="http://www.w3.org/2000/svg">
  <path d="M3.75,12.5h12.5c2.0703125,0,3.75-1.6796875,3.75-3.75S18.3203125,5,16.25,5 c-0.0234375,0-0.0429688,0.0078125-0.0625,0.0078125C16.2304688,4.8046875,16.25,4.59375,16.25,4.375 c0-1.7265625-1.3984375-3.125-3.125-3.125c-0.9609375,0-1.8085938,0.4414062-2.3828125,1.125C10.015625,0.96875,8.5664062,0,6.875,0 C4.4570312,0,2.5,1.9570312,2.5,4.375c0,0.2851562,0.03125,0.5585938,0.0820312,0.828125C1.0859375,5.6953125,0,7.0898438,0,8.75 C0,10.8203125,1.6796875,12.5,3.75,12.5z M4.9570312,15.1992188l-0.3125-0.5429688 c-0.0859375-0.1484365-0.2773438-0.1992188-0.4257812-0.1132803L3.125,15.171876V14.0625c0-0.171875-0.140625-0.3125-0.3125-0.3125 h-0.625c-0.171875,0-0.3125,0.140625-0.3125,0.3125v1.109375l-1.09375-0.6289062 c-0.1484375-0.0859385-0.3398438-0.0351562-0.4257812,0.1132803l-0.3125,0.5429688 c-0.0859375,0.1484365-0.0351562,0.3398447,0.1132812,0.4257812l1.0898438,0.624999L0.15625,16.875 c-0.1484375,0.0859375-0.1992188,0.2773438-0.1132812,0.4257812l0.3125,0.5429688 c0.0859375,0.1484375,0.2773438,0.1992188,0.4257812,0.1132812L1.875,17.328125V18.4375c0,0.171875,0.140625,0.3125,0.3125,0.3125 h0.625c0.171875,0,0.3125-0.140625,0.3125-0.3125v-1.109375l1.09375,0.6289062 c0.1484375,0.0859375,0.3398438,0.0351562,0.4257812-0.1132812l0.3125-0.5429688 c0.0859375-0.1484356,0.0351562-0.3398438-0.1132812-0.4257793l-1.0898438-0.625L4.84375,15.625001 c0.1484375-0.0859375,0.1992188-0.2773438,0.1132812-0.4257803V15.1992188z M12.4570312,16.4492188l-0.3125-0.5429688 c-0.0859385-0.1484365-0.2773438-0.1992188-0.4257812-0.1132803L10.625,16.421875V15.3125c0-0.171875-0.140625-0.3125-0.3125-0.3125 h-0.625c-0.171875,0-0.3125,0.140625-0.3125,0.3125v1.109375l-1.09375-0.6289062 c-0.1484375-0.0859385-0.3398438-0.0351562-0.4257812,0.1132803l-0.3125,0.5429697 c-0.085937,0.1484356-0.0351558,0.3398438,0.1132812,0.4257793l1.0898438,0.625l-1.0898438,0.625 c-0.1484375,0.0859394-0.1992188,0.2773457-0.1132812,0.4257812l0.3125,0.5429688 c0.0859375,0.1484375,0.2773438,0.1992188,0.4257812,0.1132812L9.375,18.5781231V19.6875C9.375,19.859375,9.515625,20,9.6875,20 h0.625c0.171875,0,0.3125-0.140625,0.3125-0.3125v-1.109375l1.09375,0.6289062 c0.1484375,0.0859375,0.3398438,0.0351562,0.4257812-0.1132812l0.3125-0.5429688 c0.0859375-0.1484356,0.0351562-0.3398438-0.1132812-0.4257793l-1.0898438-0.625l1.0898438-0.625 c0.1484375-0.0859394,0.1992188-0.2773457,0.1132812-0.4257812V16.4492188z M19.9570312,15.1992188l-0.3125-0.5429688 c-0.0859375-0.1484365-0.2773438-0.1992188-0.4257812-0.1132803L18.125,15.171876V14.0625c0-0.171875-0.140625-0.3125-0.3125-0.3125 h-0.625c-0.171875,0-0.3125,0.140625-0.3125,0.3125v1.109375l-1.09375-0.6289062 c-0.1484375-0.0859385-0.3398438-0.0351562-0.4257812,0.1132803l-0.3125,0.5429688 c-0.0859375,0.1484365-0.0351562,0.3398447,0.1132812,0.4257812l1.0898438,0.624999l-1.0898438,0.625 c-0.1484375,0.0859394-0.1992188,0.2773457-0.1132812,0.4257812l0.3125,0.5429688 c0.0859385,0.1484375,0.2773438,0.1992188,0.4257812,0.1132812l1.09375-0.6289062V18.4375c0,0.171875,0.140625,0.3125,0.3125,0.3125 h0.625c0.171875,0,0.3125-0.140625,0.3125-0.3125v-1.109375l1.09375,0.6289062 c0.1484375,0.0859375,0.3398438,0.0351562,0.4257812-0.1132812l0.3125-0.5429688 c0.0859375-0.1484356,0.0351562-0.3398438-0.1132812-0.4257793l-1.0898438-0.625l1.0898438-0.625001 c0.1484375-0.0859375,0.1992188-0.2773438,0.1132812-0.4257803V15.1992188z" />
</svg>