<svg width="20" height="20" viewBox="0 0 20 20" xmlns="http://www.w3.org/2000/svg">
  <path d="M6.1208286,9.999506H0.6249729C0.2812378,9.999506,0,10.2807446,0,10.6244783v1.2499466 c0,0.3437347,0.2812378,0.6249723,0.6249729,0.6249723H6.17942c0.6210666,0,1.203073,0.4257631,1.3046317,1.0390177 c0.1289005,0.7812166-0.4726362,1.4608746-1.2343221,1.4608746c-0.5507579,0-1.0194874-0.3593597-1.1874485-0.8554316 c-0.0820274-0.2460823-0.3359227-0.3945141-0.5937243-0.3945141H3.187362c-0.382796,0-0.6913762,0.3437347-0.6210668,0.7187185 c0.335923,1.7225809,1.8592944,3.0311193,3.6795282,3.0311193c2.2303729,0,4.0115447-1.9569473,3.7185893-4.2420044 C9.7261419,11.3666344,8.0230904,9.999506,6.1208286,9.999506z M0.6249729,8.7495594h13.1244316 c2.3319321,0,4.1716938-2.140532,3.6639042-4.5583959c-0.2968636-1.4140012-1.4413443-2.5584831-2.8553457-2.8553452 c-2.163969-0.4531054-4.1052914,0.9726143-4.4880867,2.949091C9.9956608,4.659893,10.3081474,4.999722,10.6870365,4.999722 h1.2811947c0.2617073,0,0.5116968-0.1484313,0.5937243-0.3945141c0.1679621-0.4960723,0.636692-0.8554318,1.1874495-0.8554318 c0.7577801,0,1.3632221,0.6796582,1.2343225,1.4608743c-0.1015587,0.6132545-0.6796579,1.0390177-1.3046312,1.0390177H0.6249729 C0.2812378,6.2496681,0,6.5309057,0,6.8746409v1.2499461C0,8.4683218,0.2812378,8.7495594,0.6249729,8.7495594z  M15.6243238,9.999506H9.5191193c0.7538738,0.6484098,1.2968187,1.5155592,1.5546207,2.4998913h4.5505838 c1.0351114,0,1.8749189,0.8398075,1.8749189,1.8749189s-0.8398075,1.8749189-1.8749189,1.8749189 c-0.6991882,0-1.300724-0.3867016-1.6249294-0.953083c-0.1132765-0.1953039-0.3398294-0.2968626-0.5663824-0.2968626h-1.3202543 c-0.4257631,0-0.742156,0.4218559-0.5976305,0.8241835c0.695282,1.9764767,2.753787,3.3123569,5.0544682,2.8240967 c1.6093063-0.3398285,2.9334679-1.6249294,3.3084526-3.2303286C20.5459862,12.5579891,18.3781109,9.999506,15.6243238,9.999506z" />
</svg>